<?xml version="1.0" encoding="UTF-8" standalone="no"?>
<svg width="1381px" height="622px" viewBox="0 0 1381 622" version="1.1" xmlns="http://www.w3.org/2000/svg" xmlns:xlink="http://www.w3.org/1999/xlink" xmlns:sketch="http://www.bohemiancoding.com/sketch/ns">
    <title>collabforge</title>
    <description>Created with Sketch (http://www.bohemiancoding.com/sketch)</description>
    <defs>
        <path id="path-1" d="M0,0.61 L1417.32,0.61 L1417.32,851 L0,851 L0,851 L0,0.61"></path>
        <mask id="mask-2" sketch:name="Clip 2" fill="white">
            <use xlink:href="#path-1"></use>
        </mask>
        <path id="path-3" d="M0,0.61 L1417.32,0.61 L1417.32,851 L0,851 L0,851 L0,0.61"></path>
        <mask id="mask-4" sketch:name="Clip 5" fill="white">
            <use xlink:href="#path-3"></use>
        </mask>
        <path id="path-5" d="M0,0.61 L1417.32,0.61 L1417.32,851 L0,851 L0,851 L0,0.61 L0,0.61 Z M0,0.61"></path>
        <mask id="mask-6" sketch:name="Clip 8" fill="white">
            <use xlink:href="#path-5"></use>
        </mask>
        <path id="path-7" d="M0,0.61 L1417.32,0.61 L1417.32,851 L0,851 L0,851 L0,0.61 L0,0.61 Z M0,0.61"></path>
        <mask id="mask-8" sketch:name="Clip 11" fill="white">
            <use xlink:href="#path-7"></use>
        </mask>
        <path id="path-9" d="M0,0.61 L1417.32,0.61 L1417.32,851 L0,851 L0,851 L0,0.61"></path>
        <mask id="mask-10" sketch:name="Clip 14" fill="white">
            <use xlink:href="#path-9"></use>
        </mask>
        <path id="path-11" d="M0,0.61 L1417.32,0.61 L1417.32,851 L0,851 L0,851 L0,0.61 L0,0.61 Z M0,0.61"></path>
        <mask id="mask-12" sketch:name="Clip 17" fill="white">
            <use xlink:href="#path-11"></use>
        </mask>
        <path id="path-13" d="M0,0.61 L1417.32,0.61 L1417.32,851 L0,851 L0,851 L0,0.61 L0,0.61 Z M0,0.61"></path>
        <mask id="mask-14" sketch:name="Clip 20" fill="white">
            <use xlink:href="#path-13"></use>
        </mask>
        <path id="path-15" d="M0,0.61 L1417.32,0.61 L1417.32,851 L0,851 L0,851 L0,0.61"></path>
        <mask id="mask-16" sketch:name="Clip 23" fill="white">
            <use xlink:href="#path-15"></use>
        </mask>
        <path id="path-17" d="M0,0.61 L1417.32,0.61 L1417.32,851 L0,851 L0,851 L0,0.61 L0,0.61 Z M0,0.61"></path>
        <mask id="mask-18" sketch:name="Clip 26" fill="white">
            <use xlink:href="#path-17"></use>
        </mask>
        <path id="path-19" d="M0,0.61 L1417.32,0.61 L1417.32,851 L0,851 L0,851 L0,0.61"></path>
        <mask id="mask-20" sketch:name="Clip 29" fill="white">
            <use xlink:href="#path-19"></use>
        </mask>
        <path id="path-21" d="M0,0.61 L1417.32,0.61 L1417.32,851 L0,851 L0,851 L0,0.61 L0,0.61 Z M0,0.61"></path>
        <mask id="mask-22" sketch:name="Clip 32" fill="white">
            <use xlink:href="#path-21"></use>
        </mask>
        <path id="path-23" d="M0,0.61 L1417.32,0.61 L1417.32,851 L0,851 L0,851 L0,0.61"></path>
        <mask id="mask-24" sketch:name="Clip 35" fill="white">
            <use xlink:href="#path-23"></use>
        </mask>
    </defs>
    <g id="Page-1" stroke="none" stroke-width="1" fill="none" fill-rule="evenodd" sketch:type="MSPage">
        <g id="collabforge-logo01-50x30" sketch:type="MSLayerGroup" transform="translate(-18.000000, -78.000000)">
            <g id="Page-1" sketch:type="MSShapeGroup">
                <g id="Group-3">
                    <use id="Clip-2" xlink:href="#path-1"></use>
                    <path d="M87.7588,517.7002 C104.1348,517.7002 133.6678,524.4022 133.6678,546.2412 L133.6678,561.1322 L105.8738,561.1322 L105.8738,554.1752 C105.8738,547.2372 95.4528,544.2482 87.7588,544.2482 C65.9158,544.2482 50.2868,560.8872 50.2868,583.7122 C50.2868,609.5172 69.3948,622.6792 89.7378,622.6792 C111.3308,622.6792 127.2188,605.5502 127.2188,605.5502 L140.3748,627.3882 C140.3748,627.3882 121.5078,650.2142 87.0158,650.2142 C45.3238,650.2142 18.5228,620.6852 18.5228,583.9572 C18.5228,548.2242 44.3368,517.7002 87.7588,517.7002" id="Fill-1" fill="#471F61" mask="url(#mask-2)"></path>
                </g>
                <g id="Group-6">
                    <use id="Clip-5" xlink:href="#path-3"></use>
                    <path d="M225.5166,517.7002 C264.2336,517.7002 295.0016,545.2532 295.0016,583.9572 C295.0016,622.9232 264.2336,650.2142 225.5166,650.2142 C187.0486,650.2142 156.2796,622.9232 156.2796,583.9572 C156.2796,545.2532 187.0486,517.7002 225.5166,517.7002 M225.5166,623.4212 C246.1136,623.4212 263.2326,607.5342 263.2326,583.9572 C263.2326,560.6342 246.1136,544.5022 225.5166,544.5022 C205.1636,544.5022 188.0446,560.6342 188.0446,583.9572 C188.0446,607.5342 205.1636,623.4212 225.5166,623.4212" id="Fill-4" fill="#471F61" mask="url(#mask-4)"></path>
                </g>
                <g id="Group-9">
                    <use id="Clip-8" xlink:href="#path-5"></use>
                    <path d="M325.0557,503.3076 C325.0557,499.5846 323.0767,497.8456 319.5977,497.8456 L309.6707,497.8456 L309.6707,471.0436 L339.7017,471.0436 C351.3587,471.0436 356.5717,476.2516 356.5717,487.9276 L356.5717,615.2326 C356.5717,618.7026 358.5597,620.6856 362.0337,620.6856 L371.7117,620.6856 L371.7117,647.2426 L341.9347,647.2426 C330.0237,647.2426 325.0557,642.2786 325.0557,630.3686 C325.0557,630.3686 325.0557,642.2786 325.0557,630.3686 L325.0557,503.3076 L325.0557,503.3076 Z M325.0557,503.3076" id="Fill-7" fill="#471F61" mask="url(#mask-6)"></path>
                </g>
                <g id="Group-12">
                    <use id="Clip-11" xlink:href="#path-7"></use>
                    <path d="M403.9795,503.3076 C403.9795,499.5846 402.0005,497.8456 398.5215,497.8456 L388.5945,497.8456 L388.5945,471.0436 L418.6255,471.0436 C430.2875,471.0436 435.4955,476.2516 435.4955,487.9276 L435.4955,615.2326 C435.4955,618.7026 437.4835,620.6856 440.9575,620.6856 L450.6345,620.6856 L450.6345,647.2426 L420.8585,647.2426 C408.9475,647.2426 403.9795,642.2786 403.9795,630.3686 C403.9795,630.3686 403.9795,642.2786 403.9795,630.3686 L403.9795,503.3076 L403.9795,503.3076 Z M403.9795,503.3076" id="Fill-10" fill="#471F61" mask="url(#mask-8)"></path>
                </g>
                <g id="Group-15">
                    <use id="Clip-14" xlink:href="#path-9"></use>
                    <path d="M546.4424,567.834 L550.4094,567.834 L550.4094,566.838 C550.4094,548.723 543.2134,542.02 527.0814,542.02 C521.3804,542.02 510.2124,543.515 510.2124,550.462 L510.2124,557.155 L480.9194,557.155 L480.9194,543.759 C480.9194,520.182 514.1834,517.7 527.3354,517.7 C569.5214,517.7 581.9254,539.782 581.9254,568.079 L581.9254,615.232 C581.9254,618.702 583.9094,620.686 587.3824,620.686 L597.3144,620.686 L597.3144,647.242 L569.0234,647.242 C557.3564,647.242 552.8914,640.784 552.8914,633.339 C552.8914,630.114 553.1404,627.886 553.1404,627.886 L552.6424,627.886 C552.6424,627.886 542.9634,650.223 514.4274,650.223 C491.8474,650.223 471.2464,636.074 471.2464,610.768 C471.2464,571.059 525.8454,567.834 546.4424,567.834 M522.1224,625.649 C538.9924,625.649 550.9074,607.778 550.9074,592.398 L550.9074,589.419 L545.4464,589.419 C529.0694,589.419 503.0154,591.655 503.0154,609.272 C503.0154,617.715 509.2154,625.649 522.1224,625.649" id="Fill-13" fill="#471F61" mask="url(#mask-10)"></path>
                </g>
                <g id="Group-18">
                    <use id="Clip-17" xlink:href="#path-11"></use>
                    <path d="M628.3594,503.3076 C628.3594,499.5846 626.3804,497.8456 622.9024,497.8456 L612.9754,497.8456 L612.9754,471.0436 L643.0054,471.0436 C654.6634,471.0436 659.8804,476.2516 659.8804,487.9276 L659.8804,524.6566 C659.8804,530.8606 659.3774,535.3176 659.3774,535.3176 L659.8804,535.3176 C659.8804,535.3176 671.0484,517.7006 697.8454,517.7006 C732.0914,517.7006 753.9254,544.7546 753.9254,583.9566 C753.9254,624.1626 729.3614,650.2226 695.8574,650.2226 C669.5534,650.2226 658.1414,632.3516 658.1414,632.3516 L657.6384,632.3516 C657.6384,632.3516 658.1414,635.8296 658.1414,640.7936 L658.1414,647.2426 L628.3594,647.2426 L628.3594,647.2426 L628.3594,503.3076 L628.3594,503.3076 Z M690.4004,623.6646 C707.5324,623.6646 722.1604,609.5176 722.1604,584.4546 C722.1604,560.3796 709.2534,544.7546 690.6494,544.7546 C674.2724,544.7546 658.8884,556.6656 658.8884,584.7076 C658.8884,604.3096 669.3094,623.6646 690.4004,623.6646 L690.4004,623.6646 Z M690.4004,623.6646" id="Fill-16" fill="#471F61" mask="url(#mask-12)"></path>
                </g>
                <g id="Group-21">
                    <use id="Clip-20" xlink:href="#path-13"></use>
                    <path d="M789.4404,545.7422 L773.8064,545.7422 L773.8064,520.6802 L789.4404,520.6802 L789.4404,516.9572 C789.4404,475.5102 823.4434,470.0562 841.0694,470.0562 C847.5184,470.0562 851.7344,470.8002 851.7344,470.8002 L851.7344,497.6012 C851.7344,497.6012 849.0074,497.1022 845.2814,497.1022 C836.3494,497.1022 820.9574,499.3402 820.9574,517.7002 L820.9574,520.6802 L848.0034,520.6802 L848.0034,545.7422 L820.9574,545.7422 L820.9574,647.2422 L789.4404,647.2422 L789.4404,647.2422 L789.4404,545.7422 L789.4404,545.7422 Z M789.4404,545.7422" id="Fill-19" fill="#471F61" mask="url(#mask-14)"></path>
                </g>
                <g id="Group-24">
                    <use id="Clip-23" xlink:href="#path-15"></use>
                    <path d="M930.418,517.7002 C969.126,517.7002 999.904,545.2532 999.904,583.9572 C999.904,622.9232 969.126,650.2142 930.418,650.2142 C891.95,650.2142 861.178,622.9232 861.178,583.9572 C861.178,545.2532 891.95,517.7002 930.418,517.7002 M930.418,623.4212 C951.016,623.4212 968.139,607.5342 968.139,583.9572 C968.139,560.6342 951.016,544.5022 930.418,544.5022 C910.062,544.5022 892.938,560.6342 892.938,583.9572 C892.938,607.5342 910.062,623.4212 930.418,623.4212" id="Fill-22" fill="#471F61" mask="url(#mask-16)"></path>
                </g>
                <g id="Group-27">
                    <use id="Clip-26" xlink:href="#path-17"></use>
                    <path d="M1032.6924,552.9434 C1032.6924,549.2124 1030.7004,547.4814 1027.2304,547.4814 L1017.2954,547.4814 L1017.2954,520.6794 L1046.0844,520.6794 C1057.2524,520.6794 1062.9724,525.3894 1062.9724,536.0694 L1062.9724,543.5144 C1062.9724,548.2244 1062.4694,551.4584 1062.4694,551.4584 L1062.9724,551.4584 C1068.6704,533.3334 1083.8144,518.9404 1103.1614,518.9404 C1105.9014,518.9404 1108.8774,519.4394 1108.8774,519.4394 L1108.8774,550.4624 C1108.8774,550.4624 1105.6474,549.9644 1101.1814,549.9644 C1087.7814,549.9644 1072.3964,557.6624 1066.6854,576.5104 C1064.9474,582.7154 1063.9604,589.6724 1063.9604,597.1174 L1063.9604,647.2424 L1032.6924,647.2424 L1032.6924,647.2424 L1032.6924,552.9434 L1032.6924,552.9434 Z M1032.6924,552.9434" id="Fill-25" fill="#471F61" mask="url(#mask-18)"></path>
                </g>
                <g id="Group-30">
                    <use id="Clip-29" xlink:href="#path-19"></use>
                    <path d="M1177.873,517.7002 C1207.156,517.7002 1216.839,535.5712 1216.839,535.5712 L1217.342,535.5712 L1217.342,532.3462 C1217.342,526.6392 1221.3,520.6792 1231.236,520.6792 L1260.506,520.6792 L1260.506,547.4812 L1250.842,547.4812 C1247.612,547.4812 1245.38,549.2212 1245.38,552.4362 L1245.38,639.5442 C1245.38,682.9742 1211.622,699.3602 1178.62,699.3602 C1162.738,699.3602 1145.868,694.8942 1133.699,688.4362 L1143.382,663.6182 C1143.382,663.6182 1159.011,672.0602 1178.371,672.0602 C1197.478,672.0602 1214.113,663.8632 1214.113,641.0382 L1214.113,635.0782 C1214.113,632.1072 1214.348,628.3852 1214.348,628.3852 L1213.863,628.3852 C1206.409,639.0542 1195.494,644.7612 1178.62,644.7612 C1142.394,644.7612 1121.793,615.4772 1121.793,580.7322 C1121.793,545.9872 1141.394,517.7002 1177.873,517.7002 M1214.851,580.9762 C1214.851,552.1912 1200.458,544.5022 1183.335,544.5022 C1164.227,544.5022 1153.811,558.3952 1153.811,579.7452 C1153.811,601.8272 1164.979,618.2132 1185.323,618.2132 C1200.458,618.2132 1214.851,609.5172 1214.851,580.9762" id="Fill-28" fill="#471F61" mask="url(#mask-20)"></path>
                </g>
                <g id="Group-33">
                    <use id="Clip-32" xlink:href="#path-21"></use>
                    <path d="M1342.1836,517.7002 C1378.4136,517.7002 1398.2726,544.2482 1398.2726,577.7522 C1398.2726,581.4832 1397.5256,589.4192 1397.5256,589.4192 L1310.1736,589.4192 C1312.6556,611.7552 1329.0406,623.4212 1348.1476,623.4212 C1368.4956,623.4212 1383.6306,609.2722 1383.6306,609.2722 L1396.7876,631.1202 C1396.7876,631.1202 1377.4266,650.2142 1345.9106,650.2142 C1303.9646,650.2142 1277.9186,619.9522 1277.9186,583.9572 C1277.9186,545.0002 1304.2176,517.7002 1342.1836,517.7002 L1342.1836,517.7002 Z M1366.0046,567.5902 C1365.5206,552.4362 1355.0896,542.0282 1342.1836,542.0282 C1326.0516,542.0282 1314.6486,551.7022 1311.1696,567.5902 C1311.1696,567.5902 1314.6486,551.7022 1311.1696,567.5902 L1366.0046,567.5902 L1366.0046,567.5902 Z M1366.0046,567.5902" id="Fill-31" fill="#471F61" mask="url(#mask-22)"></path>
                </g>
                <g id="Group-36">
                    <use id="Clip-35" xlink:href="#path-23"></use>
                    <path d="M1207.9531,205.6572 C1217.9221,211.2822 1232.0151,209.7292 1242.8891,208.7142 C1255.7681,207.5282 1268.4631,205.0952 1281.2291,203.0212 C1278.6121,199.6932 1274.7711,198.2302 1270.5871,198.7642 C1271.0171,198.8012 1271.4331,198.8322 1271.8461,198.8602 C1252.8301,197.4692 1233.8171,209.3482 1215.1231,202.1792 C1203.3251,197.6552 1191.5991,192.8272 1180.0471,187.7052 C1173.5391,184.8112 1161.8821,181.1572 1159.6441,173.2992 C1156.1261,160.9582 1151.3031,147.7832 1150.3691,134.9262 C1149.7171,125.6512 1149.0791,116.3892 1148.1591,107.1372 C1147.7111,102.4952 1147.8921,80.7142 1142.6711,78.3292 C1141.7461,77.9042 1143.6941,103.7722 1143.9471,106.1142 C1145.1661,117.2732 1144.9981,128.9752 1146.7101,140.0082 C1148.5711,152.0542 1152.6661,163.9022 1156.7551,175.3602 C1143.7581,175.7542 1123.6401,175.7352 1118.4141,190.5132 C1116.8151,195.0242 1117.6851,199.7112 1119.4781,204.0042 C1120.5381,206.5542 1123.1871,210.0372 1122.9201,212.9172 C1122.4181,218.2702 1114.6551,218.4152 1110.9321,218.5192 C1104.3791,218.6912 1099.0261,220.0132 1093.8221,224.2302 C1090.2811,207.7542 1093.9131,190.6852 1090.8071,174.1412 C1089.4711,167.0042 1087.6131,162.2492 1088.6011,154.9442 C1089.0991,151.3432 1091.4451,142.8432 1087.5861,140.2482 C1083.4831,143.9972 1083.9631,152.1042 1084.0621,157.0682 C1084.2541,166.7412 1085.5661,176.4102 1086.8301,185.9842 C1088.2111,196.4912 1089.7561,206.9842 1090.7701,217.5362 C1091.3631,223.7952 1091.7171,225.5662 1087.6321,230.3762 C1083.4831,235.2712 1080.0641,240.7562 1076.7171,246.2222 C1067.8771,233.4602 1066.6041,214.4932 1054.4901,204.3122 C1041.2211,193.1582 1023.8071,185.2462 1029.0831,164.7262 C1015.4651,185.9482 1040.6271,197.6912 1053.1991,210.6122 C1062.6411,220.3122 1064.4941,232.7082 1068.9051,245.0762 C1069.7481,247.4762 1070.6311,249.8722 1071.4321,252.2822 C1072.3831,255.2252 1068.6651,259.8902 1067.3961,262.7392 C1065.9931,265.5472 1058.7611,262.3812 1056.7091,261.4842 C1046.6951,257.1732 1037.3931,250.5562 1026.4301,248.8262 C1011.8141,246.5072 1004.6091,256.9422 998.0841,268.2682 C982.9211,294.5722 968.0211,318.5832 940.7711,333.9002 C948.5601,338.6512 961.5171,324.2762 966.1501,319.7162 C976.2911,309.7202 986.1271,299.0822 993.9751,287.1802 C1001.9691,275.0612 1006.0581,263.6802 1019.8311,256.6752 C1024.7671,254.1572 1029.1601,254.2652 1033.7571,257.6432 C1039.5311,259.2062 1044.3271,263.0282 1035.6821,264.3282 C1030.5061,266.2802 1025.9181,269.4192 1021.4791,272.6202 C1015.9491,276.6012 1008.5361,280.6862 1004.6051,286.4152 C996.4751,298.2312 994.4061,316.2972 1007.8701,325.2502 C1021.3931,334.2402 1039.3011,326.4002 1048.9421,315.3722 C1059.6031,303.1902 1073.9911,291.4422 1079.2671,275.6822 C1079.8691,298.0052 1066.1741,318.1392 1054.3811,335.9472 C1047.7561,345.9282 1040.9441,355.8242 1035.3871,366.4442 C1032.0411,372.8392 1030.0021,379.7142 1026.7961,386.1402 C1020.1831,399.3102 1012.9201,412.1492 1006.3981,425.3782 C1002.8341,432.6312 999.3431,439.9762 996.5481,447.5662 C995.1581,451.3802 992.4351,457.4212 993.9671,461.5602 C1011.5291,424.6302 1027.2171,386.6382 1048.8791,351.8342 C1058.4261,336.4902 1073.3391,322.1792 1078.4331,304.5442 C1081.2051,294.9252 1081.1101,280.0432 1089.6601,273.3272 C1096.0231,268.3232 1109.1761,285.3962 1114.0391,288.7882 C1121.0141,293.6752 1131.3981,298.7342 1133.5141,307.7962 C1137.5571,325.0512 1149.6081,366.4442 1174.8481,359.4152 C1171.2611,351.2092 1161.3841,350.9422 1154.4451,347.1602 C1141.5701,340.1142 1145.1801,324.7652 1143.4951,312.6872 C1141.5201,298.5612 1131.5021,291.7592 1119.5061,285.9222 C1114.0301,283.2632 1104.9141,280.2242 1103.0291,273.5622 C1102.2011,270.5692 1102.7941,268.9842 1105.4391,267.7932 C1110.1031,265.6872 1114.0391,261.9462 1116.8751,257.7342 C1118.4501,271.5792 1164.6721,254.6092 1170.5961,248.8712 C1174.7621,244.8232 1181.2151,245.5022 1186.7541,245.4432 C1195.9611,245.3342 1205.2401,245.7282 1214.3981,244.6142 C1218.7951,244.0892 1228.0201,242.9792 1228.0981,236.9062 C1228.1291,234.1802 1194.0321,241.4222 1189.9831,241.8292 C1177.0131,243.0882 1164.0691,244.2702 1152.0221,249.6782 C1145.0031,252.8392 1130.4611,262.6032 1122.5761,258.2192 C1127.5661,261.0002 1132.3221,232.2462 1133.0111,229.1162 C1134.3911,222.8942 1136.8511,223.2472 1143.2731,223.9082 C1154.5311,225.0992 1163.5441,221.6032 1169.2601,211.4312 C1171.8361,206.8762 1175.1961,199.3222 1174.1551,193.8782 C1173.2991,188.5112 1178.0001,188.7652 1181.7811,190.0742 C1191.6271,193.4882 1199.0721,200.6442 1207.9531,205.6572 C1223.3101,214.3252 1207.7231,205.5262 1207.9531,205.6572" id="Fill-34" fill="#1A1918" mask="url(#mask-24)"></path>
                </g>
            </g>
        </g>
    </g>
</svg>